<svg xmlns="http://www.w3.org/2000/svg" xmlns:xlink="http://www.w3.org/1999/xlink" width="43" height="32" viewBox="0 0 43 32">
    <defs>
        <path id="a" d="M4.438 7.706v-5.69C4.438.91 3.568.014 2.497.014h-.448C.977.014.108.91.108 2.016v12.522a9.256 9.256 0 0 0-.044.896c0 4.9 3.852 8.872 8.603 8.872h7.322c4.105 0 6.83-2.343 7.645-6.54.028-.147.042-.295.042-.445V8.827c0-1.251-.983-2.266-2.196-2.266s-2.197 1.015-2.197 2.266v8.256c-.413 1.88-1.305 2.643-3.11 2.69a9.048 9.048 0 0 0 1.097-4.34c0-4.9-3.852-8.872-8.603-8.872-1.537 0-2.98.416-4.23 1.145z"/>
        <linearGradient id="b" x1="100%" x2="-56.977%" y1="50%" y2="35.096%">
            <stop offset="0%" stop-opacity="0"/>
            <stop offset="100%" stop-opacity=".25"/>
        </linearGradient>
        <linearGradient id="d" x1="50%" x2="50%" y1="50%" y2="94.35%">
            <stop offset="0%" stop-opacity="0"/>
            <stop offset="100%" stop-opacity=".25"/>
        </linearGradient>
        <path id="e" d="M7.726 13.254h7.322c1.213 0 2.196 1.014 2.196 2.265 0 1.251-.983 2.265-2.196 2.265H7.726c-4.105 0-6.831-2.342-7.645-6.54a2.334 2.334 0 0 1-.043-.444V2.305c0-1.25.984-2.265 2.197-2.265S4.43 1.054 4.43 2.305v8.257c.428 1.941 1.366 2.692 3.295 2.692z"/>
        <linearGradient id="f" x1="91.308%" x2="7.688%" y1="50%" y2="31.369%">
            <stop offset="0%" stop-opacity="0"/>
            <stop offset="100%" stop-opacity=".25"/>
        </linearGradient>
    </defs>
    <g fill="none" fill-rule="evenodd">
        <path fill="#00B0FF" fill-rule="nonzero" d="M4.524 7.794v-5.69C4.524 1 3.654.104 2.582.104h-.448C1.062.103.194.999.194 2.105v12.521a9.256 9.256 0 0 0-.044.896c0 4.9 3.852 8.873 8.603 8.873h7.321c4.106 0 6.831-2.343 7.646-6.54.028-.147.042-.296.042-.445V8.915c0-1.25-.983-2.265-2.196-2.265s-2.197 1.014-2.197 2.265v8.257c-.413 1.879-1.305 2.642-3.11 2.69a9.048 9.048 0 0 0 1.097-4.34c0-4.9-3.852-8.872-8.603-8.872-1.537 0-2.98.416-4.23 1.144z"/>
        <g transform="translate(.086 .089)">
            <mask id="c" fill="#fff">
                <use xlink:href="#a"/>
            </mask>
            <use fill="#03A9F4" xlink:href="#a"/>
            <path fill="url(#b)" fill-rule="nonzero" d="M16.887 18.07h1.2v9.02H9.339V24.3c3.574-.278 6.537-2.815 7.548-6.23z" mask="url(#c)"/>
        </g>
        <path fill="#FAB94C" fill-rule="nonzero" d="M21.749 4.762c1.263 0 2.288-1.056 2.288-2.36 0-1.302-1.025-2.359-2.288-2.359-1.264 0-2.288 1.057-2.288 2.36s1.024 2.36 2.288 2.36z"/>
        <path fill="#FFF" fill-rule="nonzero" d="M8.753 19.864c-2.325 0-4.21-1.944-4.21-4.342 0-2.398 1.885-4.341 4.21-4.341s4.21 1.943 4.21 4.341-1.885 4.342-4.21 4.342z"/>
        <path fill="#00B0FF" fill-rule="nonzero" d="M34.379 24.395c4.75 0 8.602-3.973 8.602-8.873 0-4.9-3.851-8.872-8.602-8.872-4.752 0-8.603 3.972-8.603 8.872V29.68c0 1.251.983 2.265 2.196 2.265s2.197-1.014 2.197-2.265V15.522c0-2.398 1.884-4.341 4.21-4.341 2.325 0 4.21 1.943 4.21 4.341s-1.885 4.342-4.21 4.342c-1.214 0-2.197 1.014-2.197 2.265 0 1.251.983 2.266 2.197 2.266z"/>
        <path fill="#03A9F4" d="M34.379 24.395c4.75 0 8.602-3.973 8.602-8.873 0-4.9-3.851-8.872-8.602-8.872-4.752 0-8.603 3.972-8.603 8.872V29.68c0 1.251.983 2.265 2.196 2.265s2.197-1.014 2.197-2.265V15.522c0-2.398 1.884-4.341 4.21-4.341 2.325 0 4.21 1.943 4.21 4.341s-1.885 4.342-4.21 4.342c-1.214 0-2.197 1.014-2.197 2.265 0 1.251.983 2.266 2.197 2.266z"/>
        <path fill="url(#d)" fill-rule="nonzero" d="M-.217 16.961h8.748v11.187H-.217z" opacity=".2" transform="matrix(1 0 0 -1 25.738 51.719)"/>
        <g>
            <g transform="translate(19.33 6.61)">
                <mask id="g" fill="#fff">
                    <use xlink:href="#e"/>
                </mask>
                <use fill="#03A9F4" xlink:href="#e"/>
                <path fill="url(#f)" fill-rule="nonzero" d="M5.201 11.187H6.54v9.022h-8.748v-3.326c.221.014.442.022.663.022 3.576 0 5.54-2.492 6.746-5.718z" mask="url(#g)" transform="rotate(-10 2.166 15.698)"/>
            </g>
        </g>
    </g>
</svg>
